<?xml version="1.0" encoding="utf-8"?>
<!-- Generator: Adobe Illustrator 23.0.1, SVG Export Plug-In . SVG Version: 6.00 Build 0)  -->
<svg version="1.1" id="Layer_1" xmlns="http://www.w3.org/2000/svg" xmlns:xlink="http://www.w3.org/1999/xlink" x="0px" y="0px"
	 viewBox="0 0 700 700" style="enable-background:new 0 0 700 700;" xml:space="preserve">
<path d="M350,0C195.6,0,70,125.6,70,280s125.6,280,280,280s280-125.6,280-280S504.4,0,350,0z M350,530.8
	C211.7,530.8,99.1,418.3,99.1,280S211.7,29.1,350,29.1S600.8,141.7,600.8,280S488.3,530.8,350,530.8L350,530.8z"/>
<path d="M440.5,125.9c-6.9-4.1-15.9-1.8-20,5.2c-4.1,6.9-1.8,15.9,5.2,20c45.6,26.8,73.8,76.2,73.8,129
	c0,82.5-67.1,149.5-149.6,149.5S200.5,362.5,200.5,280c0-52.8,28.3-102.2,73.8-129c6.9-4.1,9.3-13,5.2-20c-4.1-6.9-13-9.3-20-5.2
	c-54.4,32-88.2,91.1-88.2,154.1c0,98.5,80.2,178.7,178.7,178.7S528.7,378.5,528.7,280C528.7,216.9,494.9,157.9,440.5,125.9
	L440.5,125.9z"/>
<path d="M350,81.8c-8.1,0-14.6,6.5-14.6,14.6V280c0,8.1,6.5,14.6,14.6,14.6s14.6-6.5,14.6-14.6V96.4C364.6,88.4,358.1,81.8,350,81.8
	z"/>
</svg>
