<?xml version="1.0" encoding="utf-8"?>
<!-- Generator: Adobe Illustrator 23.0.1, SVG Export Plug-In . SVG Version: 6.00 Build 0)  -->
<svg version="1.1" id="Layer_1" xmlns="http://www.w3.org/2000/svg" xmlns:xlink="http://www.w3.org/1999/xlink" x="0px" y="0px"
	 viewBox="0 0 700 700" style="enable-background:new 0 0 700 700;" xml:space="preserve">
<g>
	<path d="M246.35,87.87c-19.36,0-35.46,15.8-35.96,35.06l-84.36,0c-3.73-0.02-7.31,1.46-9.95,4.1c-2.64,2.64-4.11,6.22-4.1,9.96
		c0.01,3.71,1.5,7.27,4.14,9.88c2.64,2.61,6.2,4.07,9.91,4.06h84.36c0.51,19.24,16.6,35.03,35.96,35.03h46.4
		c19.36,0,35.42-15.79,35.93-35.03h245.36c7.7-0.01,13.95-6.24,13.97-13.94c0.02-3.72-1.45-7.29-4.07-9.93
		c-2.62-2.64-6.18-4.13-9.9-4.13H328.68c-0.5-19.26-16.57-35.06-35.93-35.06L246.35,87.87z M246.35,115.89h46.4
		c4.64,0,7.96,3.32,7.96,7.96v26.14c0,4.64-3.31,7.96-7.96,7.96h-46.4c-4.64,0-7.96-3.32-7.96-7.96v-26.14
		C238.39,119.21,241.71,115.89,246.35,115.89z M407.24,230.9c-19.39,0-35.5,15.84-35.96,35.14l-245.25,0
		c-3.71-0.02-7.28,1.45-9.91,4.06c-2.64,2.62-4.13,6.17-4.14,9.88c0,3.72,1.49,7.28,4.13,9.9c2.64,2.62,6.21,4.09,9.92,4.07h245.25
		c0.45,19.29,16.57,35.14,35.96,35.14h46.4c19.39,0,35.5-15.84,35.96-35.14h84.44c7.71-0.01,13.96-6.26,13.97-13.97
		c-0.03-7.7-6.27-13.93-13.97-13.94H489.6c-0.45-19.3-16.57-35.14-35.96-35.14L407.24,230.9z M407.24,258.9h46.4
		c4.64,0,7.96,3.32,7.96,7.96v26.25c0,4.64-3.32,7.96-7.96,7.96h-46.4c-4.64,0-7.96-3.32-7.96-7.96v-26.25
		C399.28,262.22,402.6,258.9,407.24,258.9z M245.42,374.04c-18.98,0.49-34.58,16.04-35.03,35.03h-84.36
		c-3.71-0.01-7.28,1.45-9.91,4.06c-2.64,2.62-4.13,6.17-4.14,9.89c-0.02,3.73,1.46,7.31,4.1,9.95c2.64,2.64,6.22,4.11,9.95,4.1
		h84.36c0.5,19.25,16.59,35.05,35.96,35.05h46.4c19.36,0,35.43-15.8,35.93-35.05h245.36c3.72,0,7.28-1.49,9.9-4.13
		c2.62-2.64,4.09-6.21,4.07-9.92c-0.03-7.7-6.27-13.93-13.97-13.95H328.68c-0.45-19.29-16.54-35.03-35.93-35.03h-46.4
		C246.04,374.04,245.72,374.04,245.42,374.04L245.42,374.04z M246.35,402.04h46.4c4.64,0,7.96,3.2,7.96,7.85v26.25
		c0,4.64-3.31,7.96-7.96,7.96h-46.4c-4.64,0-7.96-3.32-7.96-7.96v-26.25C238.39,405.25,241.71,402.04,246.35,402.04z"/>
</g>
</svg>
