<?xml version="1.0" encoding="utf-8"?>
<!-- Generator: Adobe Illustrator 23.0.1, SVG Export Plug-In . SVG Version: 6.00 Build 0)  -->
<svg version="1.1" id="Layer_1" xmlns="http://www.w3.org/2000/svg" xmlns:xlink="http://www.w3.org/1999/xlink" x="0px" y="0px"
	 viewBox="0 0 700 700" style="enable-background:new 0 0 700 700;" xml:space="preserve">
<g>
	<path d="M599,406.4c-33-8.4-86.1,13.7-109,24.4c-3.7-20-39.3-31.4-58.7-35.2c-36.1-6.3-100.7-43.1-100.8-43.1
		c-31.9-23.7-77.3-8.6-105.8,5.3l-1.2-7.3c-0.6-3.5-3.8-5.8-7.3-5.2L88.9,366.8c-3.5,0.6-5.8,3.9-5.2,7.3l27.3,160.7
		c0.5,3.1,3.2,5.3,6.3,5.3c0.4,0,0.7,0,1.1-0.1l127.2-21.6c3.5-0.6,5.8-3.9,5.2-7.3l-2.4-14.1c55.1,8.5,129.6,34,130.2,34.2
		c42.6,16,88.7,9.2,128.7-11.4c33.7-17.5,81.7-35.1,105-58.9C629.3,443.6,621.8,412.1,599,406.4L599,406.4z M122.4,526.5L97.3,378.3
		l114.6-19.5L237.1,507L122.4,526.5z M603.1,452.2c-21.3,21.7-69.6,39.8-101.7,56.4c-23.2,11.9-69.4,29.2-118.5,10.7
		c-3.3-1.1-80.3-27.4-136.8-35.4l-19.2-113.1c22-11.1,67.4-29.3,96.6-7.8c2.7,1.6,67.3,38.4,105.4,45c16.5,3.3,54.2,15.3,47.6,30.1
		c-17.7,17.7-45,23.8-74,6.9c-22.2-12.9-49-16.6-50.1-16.8c-3.5-0.5-6.7,2-7.2,5.4c-0.5,3.5,2,6.7,5.4,7.2c0.3,0,25.5,3.6,45.5,15.2
		c34.4,20,68.1,12.5,89.5-9c7.2-3.7,74.6-37.4,110.3-28.3C608.9,422,613.5,441.6,603.1,452.2L603.1,452.2z"/>
	<path d="M176.1,374.4c-9,0-16.3,7.3-16.3,16.3c0,9,7.3,16.3,16.3,16.3c9,0,16.3-7.3,16.3-16.3C192.4,381.7,185.1,374.4,176.1,374.4
		z M176.1,394.4c-2,0-3.6-1.6-3.6-3.6c0-2,1.6-3.6,3.6-3.6s3.6,1.6,3.6,3.6C179.7,392.7,178.1,394.4,176.1,394.4z"/>
	<path d="M134,382.1c-9,0-16.3,7.3-16.3,16.3s7.3,16.3,16.3,16.3c9,0,16.3-7.3,16.3-16.3S143,382.1,134,382.1z M134,402.1
		c-2,0-3.6-1.6-3.6-3.6c0-2,1.6-3.6,3.6-3.6s3.6,1.6,3.6,3.6S136,402.1,134,402.1z"/>
	<path d="M167.1,207.8c12.4,0,22.6,10.2,22.6,22.6c0,3.5,2.9,6.3,6.4,6.3h350.2c3.5,0,6.4-2.8,6.4-6.3c0-12.4,10-22.4,22.3-22.6
		c3.7,0.3,6.8-2.7,6.8-6.3l0-116.9c0-3.7-3-6.6-6.8-6.3c-12.3-0.2-22.2-10.1-22.4-22.3c0-0.2,0-0.3,0-0.5c0-3.5-2.9-6.4-6.4-6.4
		H196.1c-3.5,0-6.4,2.9-6.4,6.4c0,0.1,0,0.3,0,0.4c-0.2,12.3-10.3,22.3-22.6,22.4c-3.5,0-6.3,2.9-6.3,6.4v116.9
		C160.8,204.9,163.6,207.8,167.1,207.8L167.1,207.8z M173.5,90.3c14.4-2.7,25.8-14.1,28.4-28.6h338.6c2.6,14.5,14.1,26,28.6,28.6
		v105.3c-14.4,2.6-25.9,14-28.6,28.4H201.9c-2.7-14.3-14-25.7-28.4-28.4L173.5,90.3z"/>
	<path d="M225.4,178.3c19.6,0,35.5-15.9,35.5-35.5c0-19.6-15.9-35.5-35.5-35.5c-19.6,0-35.5,15.9-35.5,35.5
		C189.9,162.4,205.9,178.3,225.4,178.3L225.4,178.3z M225.4,120c12.6,0,22.8,10.2,22.8,22.8c0,12.6-10.2,22.8-22.8,22.8
		c-12.6,0-22.8-10.2-22.8-22.8C202.6,130.2,212.9,120,225.4,120z"/>
	<path d="M371,207.5c35.8,0,65-29,65-64.7c0-35.8-29.2-65-65-65s-65,29.2-65,65C306,178.5,335.2,207.5,371,207.5z M371,90.5
		c28.8,0,52.3,23.5,52.3,52.3c0,28.7-23.5,52-52.3,52c-28.8,0-52.3-23.3-52.3-52C318.8,114,342.2,90.5,371,90.5z"/>
	<path d="M517.1,178.3c19.6,0,35.5-15.9,35.5-35.5c0-19.6-15.9-35.5-35.5-35.5c-19.6,0-35.5,15.9-35.5,35.5
		C481.6,162.4,497.5,178.3,517.1,178.3L517.1,178.3z M517.1,120c12.6,0,22.8,10.2,22.8,22.8c0,12.6-10.2,22.8-22.8,22.8
		c-12.6,0-22.8-10.2-22.8-22.8C494.3,130.2,504.5,120,517.1,120z"/>
	<path d="M350.5,158.2l-7.5,9c7.5,6.5,15.9,10.3,25.3,11.2v7.5h6.6v-7.4c7-0.3,12.6-2.4,16.9-6.2c4.3-3.8,6.4-8.7,6.4-14.7
		c0-6-1.9-10.6-5.6-13.7c-3.7-3.2-9.5-5.7-17.4-7.5h-0.3V117c5.3,0.8,10.2,2.8,14.7,6l6.7-9.5c-6.7-4.6-13.9-7.2-21.4-7.7v-5.3h-6.6
		v5.1c-6.7,0.3-12.1,2.4-16.2,6.2c-4.1,3.8-6.2,8.6-6.2,14.6c0,5.9,1.8,10.4,5.4,13.4c3.6,3,9.3,5.5,17,7.3l0,20
		C362.2,166.2,356.3,163.2,350.5,158.2L350.5,158.2z M374.9,148.9c4.1,1.2,6.9,2.6,8.4,4c1.5,1.4,2.3,3.3,2.3,5.7c0,2.4-1,4.4-2.9,6
		c-1.9,1.6-4.5,2.5-7.8,2.9L374.9,148.9z M360.5,130.6c-1.4-1.3-2.1-3.2-2.1-5.5c0-2.3,0.9-4.2,2.6-5.8c1.7-1.5,4.2-2.5,7.3-2.7
		v17.8C364.5,133.3,361.8,132,360.5,130.6L360.5,130.6z"/>
	<path d="M539.2,366.1c3,0,5.5-2.1,6.2-4.9l22.3-95.3h37c3.5,0,6.4-2.9,6.4-6.4V26.2c0-3.5-2.9-6.4-6.4-6.4H138.1
		c-0.1,0-0.1,0-0.2,0c-3,0-5.4,2.2-6.1,5c0,0.1-0.1,0.2-0.1,0.3L78.7,252c-0.8,3.4,1.3,6.8,4.7,7.6l454.4,106.3
		C538.2,366,538.7,366.1,539.2,366.1L539.2,366.1z M598.3,253.2h-359c-0.1,0-0.1,0-0.2,0h-94.6c0-71.3,0.1-87.8,0.1-220.6h453.9
		L598.3,253.2L598.3,253.2z M524.7,265.9l-5.5,23.4c-14.8-0.8-28.5,7.9-34.3,21.2l-190.7-44.6L524.7,265.9z M131.6,257.8l-39.1-9.2
		l39.1-167c0,86.6,2.6,61.2-11.3,120.4c-0.8,3.4,1.3,6.8,4.7,7.6c2.3,0.5,4.5,1.4,6.6,2.7V257.8z M166.2,265.9h72.2l249.2,58.4
		c3.4,0.8,6.8-1.3,7.6-4.7c2.8-11.8,14.6-19.5,26.5-17.1c3.6,1.4,7.6-0.8,8.4-4.5l7.5-32.1h16.9l-20.1,86.2L166.2,265.9z"/>
</g>
</svg>
