<?xml version="1.0" encoding="utf-8"?>
<!-- Generator: Adobe Illustrator 23.0.1, SVG Export Plug-In . SVG Version: 6.00 Build 0)  -->
<svg version="1.1" id="Layer_1" xmlns="http://www.w3.org/2000/svg" xmlns:xlink="http://www.w3.org/1999/xlink" x="0px" y="0px"
	 viewBox="0 0 700 700" style="enable-background:new 0 0 700 700;" xml:space="preserve">
<g>
	<path d="M543.7,160.8H194.4c-3.5,0-6.3,2.8-6.3,6.3v28.3h-14.3c-3.5,0-6.3,2.8-6.3,6.3v26.1h-11.2c-3.5,0-6.3,2.8-6.3,6.3V393
		c0,3.5,2.8,6.3,6.3,6.3h329.9c3.5,0,6.3-2.8,6.3-6.3v-41.2h22.2c3.5,0,6.3-2.8,6.3-6.3v-41.2h22.7c3.5,0,6.3-2.8,6.3-6.3l0-131
		C550,163.6,547.2,160.8,543.7,160.8L543.7,160.8z M194.2,240.3c-2.7,16.1-15.4,28.9-31.5,31.5v-31.5H194.2z M213.3,240.3h222.3
		c2.9,23.1,21.2,41.4,44.3,44.3v57.8c-23.1,2.9-41.4,21.2-44.3,44.3l-228.7,0c-2.9-23.1-21.2-41.4-44.3-44.3v-57.8
		c23.1-2.9,41.4-21.2,44.3-44.3L213.3,240.3L213.3,240.3z M479.9,271.9c-16.1-2.7-28.9-15.4-31.5-31.5h31.5V271.9z M162.6,386.6
		v-31.5c16.1,2.7,28.9,15.4,31.5,31.5H162.6z M448.3,386.6c2.7-16.1,15.4-28.9,31.5-31.5v31.5H448.3z M508.4,339.2h-15.9V234
		c0-3.5-2.8-6.3-6.3-6.3h-306v-19.8h328.2V298L508.4,339.2L508.4,339.2z M537.4,291.7H521l0-90.1c0-3.5-2.8-6.3-6.3-6.3h-314v-22
		h336.7L537.4,291.7L537.4,291.7z"/>
	<path d="M321.2,374.8c16.4,0,31.8-6.4,43.4-18c11.6-11.6,18-27,18-43.4c0-16.4-6.4-31.8-18-43.4c-11.6-11.6-27-18-43.4-18
		s-31.8,6.4-43.4,18c-11.6,11.6-18,27-18,43.4c0,16.4,6.4,31.8,18,43.4C289.4,368.5,304.8,374.8,321.2,374.8z M321.2,264.7
		c26.9,0,48.8,21.9,48.8,48.8c0,26.9-21.9,48.8-48.8,48.8c-26.9,0-48.8-21.9-48.8-48.8C272.5,286.6,294.3,264.7,321.2,264.7z"/>
	<path d="M319.1,328.4c-5.3,0-10.1-1.7-13.4-3.6l-2.4,9.5c3.1,1.7,8.3,3.2,13.8,3.5v7.7h8v-8.3c9.3-1.5,14.3-7.7,14.3-14.9
		c0-7.4-3.8-11.8-13.4-15.2c-7-2.5-9.8-4.3-9.8-6.9c0-2.3,1.7-4.6,7-4.6c5.8,0,9.6,1.9,11.7,2.8l2.4-9.2c-2.8-1.3-6.5-2.5-11.8-2.7
		v-7.1h-7.9v7.7c-8.7,1.6-13.7,7.2-13.7,14.4c0,7.9,5.9,11.9,14.6,14.8c6.1,2,8.7,4,8.7,7.1C326.9,326.5,323.8,328.4,319.1,328.4
		L319.1,328.4z"/>
</g>
</svg>
